<svg xmlns="http://www.w3.org/2000/svg" xmlns:xlink="http://www.w3.org/1999/xlink" version="1.1" x="0px" y="0px" viewBox="0 0 60.031 125" enable-background="new 0 0 60.031 100" xml:space="preserve"><path fill="#000000" d="M58.192,2.673L45.047,0.045c-1.206-0.243-2.399,0.521-2.679,1.73l-3.842,16.63H2.526  c-0.65,0-1.271,0.277-1.705,0.762c-0.434,0.485-0.641,1.133-0.57,1.778l6.353,57.166c-5.113,5.124-9.162,12.722-4.657,18.407  C3.75,98.796,6.372,100,9.529,100c5.318,0,10.769-3.352,12.315-4.38c0.619-0.413,1.33-0.952,1.98-1.645h23.398  c1.166,0,2.145-0.876,2.274-2.036l7.893-70.994c0.071-0.646-0.136-1.293-0.569-1.778c-0.434-0.485-1.055-0.762-1.705-0.762H43.226  l3.102-13.437L57.293,7.16c1.249,0.252,2.444-0.557,2.692-1.794C60.234,4.125,59.429,2.921,58.192,2.673z M37.47,22.981  l-2.995,12.972c-0.011,0.049,0.005,0.096-0.004,0.146c-1.417-0.313-2.911-0.706-4.544-1.263C17.627,30.655,10.312,33.12,6.49,35.647  L5.083,22.981H37.47z M9.529,95.424c-1.781,0-3.05-0.557-3.993-1.748c-3.75-4.729,4.607-12.642,4.965-12.975  c0.697-0.652,1.54-1.32,2.509-1.32c1.453,0,3.39,1.438,5.457,4.049c1.982,2.501,2.95,4.657,2.729,6.069  c-0.132,0.834-0.679,1.504-1.888,2.311C16.682,93.558,12.736,95.424,9.529,95.424z M45.175,89.398H25.784  c0.049-1.072-0.132-2.194-0.545-3.376l2.355,0.762c0.235,0.076,0.472,0.112,0.704,0.112c0.965,0,1.864-0.617,2.177-1.585  c0.389-1.202-0.271-2.491-1.473-2.88l-3.969-1.285l0.317-0.25c0.992-0.782,1.16-2.222,0.375-3.214  c-0.78-0.992-2.216-1.162-3.213-0.375l-0.319,0.252l-0.342-4.156c-0.103-1.258-1.167-2.188-2.469-2.094  c-1.26,0.105-2.197,1.209-2.094,2.469l0.201,2.449c-1.495-0.951-2.981-1.423-4.478-1.423c-0.778,0-1.481,0.141-2.129,0.353  L7.096,41.1c1.03-1.24,6.708-6.907,21.356-1.931c4.796,1.633,8.836,2.255,12.207,2.255c4.496,0,7.794-1.106,10.114-2.389  L45.175,89.398z M52.558,22.981l-1.075,9.671c-0.203,0.292-3.504,4.73-12.498,4.116l3.185-13.788H52.558z"/><path fill="#000000" d="M14.2,88.505c-0.503,0.402-0.595,1.138-0.19,1.647c0.402,0.502,1.137,0.59,1.643,0.188  c0.509-0.402,0.594-1.14,0.19-1.643C15.444,88.184,14.707,88.103,14.2,88.505z"/><path fill="#000000" d="M16.253,84.491c-0.646,0.095-1.086,0.688-0.995,1.332c0.098,0.642,0.695,1.079,1.334,0.985  c0.639-0.096,1.086-0.688,0.988-1.329C17.482,84.84,16.895,84.397,16.253,84.491z"/><path fill="#000000" d="M19.373,87.738c-0.599-0.239-1.278,0.059-1.517,0.659c-0.241,0.604,0.054,1.278,0.655,1.52  c0.604,0.239,1.283-0.056,1.522-0.654C20.264,88.659,19.974,87.978,19.373,87.738z"/><text x="0" y="115" fill="#000000" font-size="5px" font-weight="bold" font-family="'Helvetica Neue', Helvetica, Arial-Unicode, Arial, Sans-serif">Created by Jaclyne Ooi</text><text x="0" y="120" fill="#000000" font-size="5px" font-weight="bold" font-family="'Helvetica Neue', Helvetica, Arial-Unicode, Arial, Sans-serif">from the Noun Project</text></svg>